<?xml version="1.0" encoding="us-ascii" standalone="no"?><svg xmlns="http://www.w3.org/2000/svg" xmlns:xlink="http://www.w3.org/1999/xlink" contentStyleType="text/css" height="361px" preserveAspectRatio="none" style="width:500px;height:361px;background:#FFFFFF;" version="1.1" viewBox="0 0 500 361" width="500px" zoomAndPan="magnify"><defs/><g><!--cluster FirstTerm--><g id="cluster_FirstTerm"><path d="M8.5,6 L109.5,6 A3.75,3.75 0 0 1 112,8.5 L119,28.2969 L490.5,28.2969 A2.5,2.5 0 0 1 493,30.7969 L493,351.5 A2.5,2.5 0 0 1 490.5,354 L8.5,354 A2.5,2.5 0 0 1 6,351.5 L6,8.5 A2.5,2.5 0 0 1 8.5,6 " fill="none" style="stroke:#000000;stroke-width:1.5;"/><line style="stroke:#000000;stroke-width:1.5;" x1="6" x2="119" y1="28.2969" y2="28.2969"/><text fill="#000000" font-family="sans-serif" font-size="14" font-weight="bold" lengthAdjust="spacing" textLength="100" x="10" y="20.9951">&lt;FirstTerm&gt;</text></g><!--cluster OptionalSign--><g id="cluster_OptionalSign"><path d="M114.5,123 L238.5,123 A3.75,3.75 0 0 1 241,125.5 L248,145.2969 L458.5,145.2969 A2.5,2.5 0 0 1 461,147.7969 L461,319.5 A2.5,2.5 0 0 1 458.5,322 L114.5,322 A2.5,2.5 0 0 1 112,319.5 L112,125.5 A2.5,2.5 0 0 1 114.5,123 " fill="none" style="stroke:#000000;stroke-width:1.5;"/><line style="stroke:#000000;stroke-width:1.5;" x1="112" x2="248" y1="145.2969" y2="145.2969"/><text fill="#000000" font-family="sans-serif" font-size="14" font-weight="bold" lengthAdjust="spacing" textLength="123" x="116" y="137.9951">&lt;OptionalSign&gt;</text></g><!--entity start--><g id="elem_start"><ellipse cx="49" cy="150" fill="#F1F1F1" rx="8" ry="8" style="stroke:#181818;stroke-width:0.5;"/><text fill="#000000" font-family="sans-serif" font-size="14" lengthAdjust="spacing" textLength="31" x="33.5" y="179.9951">start</text></g><!--entity end--><g id="elem_end"><ellipse cx="410" cy="70" fill="#F1F1F1" rx="8" ry="8" style="stroke:#181818;stroke-width:0.5;"/><text fill="#000000" font-family="sans-serif" font-size="14" lengthAdjust="spacing" textLength="27" x="396.5" y="99.9951">end</text></g><!--class Factor--><g id="elem_Factor"><rect codeLine="30" fill="#F1F1F1" height="26.2969" id="Factor" rx="2.5" ry="2.5" style="stroke:#181818;stroke-width:0.5;" width="73" x="250" y="65"/><text fill="#000000" font-family="sans-serif" font-size="14" lengthAdjust="spacing" textLength="67" x="253" y="82.9951">&lt;Factor&gt;</text></g><!--entity start--><g id="elem_start"><ellipse cx="163" cy="248" fill="#F1F1F1" rx="8" ry="8" style="stroke:#181818;stroke-width:0.5;"/><text fill="#000000" font-family="sans-serif" font-size="14" lengthAdjust="spacing" textLength="31" x="147.5" y="277.9951">start</text></g><!--entity end--><g id="elem_end"><ellipse cx="410" cy="248" fill="#F1F1F1" rx="8" ry="8" style="stroke:#181818;stroke-width:0.5;"/><text fill="#000000" font-family="sans-serif" font-size="14" lengthAdjust="spacing" textLength="27" x="396.5" y="277.9951">end</text></g><!--class plus--><g id="elem_plus"><rect codeLine="34" fill="#F1F1F1" height="26.2969" id="plus" rx="2.5" ry="2.5" style="stroke:#181818;stroke-width:0.5;" width="28" x="272.5" y="235"/><text fill="#000000" font-family="sans-serif" font-size="14" lengthAdjust="spacing" textLength="22" x="275.5" y="252.9951">"+"</text></g><!--class minus--><g id="elem_minus"><rect codeLine="35" fill="#F1F1F1" height="26.2969" id="minus" rx="2.5" ry="2.5" style="stroke:#181818;stroke-width:0.5;" width="21" x="276" y="174"/><text fill="#000000" font-family="sans-serif" font-size="14" lengthAdjust="spacing" textLength="15" x="279" y="191.9951">"-"</text></g><!--link start to plus--><g id="link_start_plus"><path codeLine="37" d="M172.35,248 C193.15,248 241.41,248 266.46,248 " fill="none" id="start-to-plus" style="stroke:#181818;stroke-width:1.0;"/><polygon fill="#181818" points="272.46,248,263.46,244,267.46,248,263.46,252,272.46,248" style="stroke:#181818;stroke-width:1.0;"/></g><!--link plus to end--><g id="link_plus_end"><path codeLine="38" d="M300.5,248 C325.6,248 374.08,248 394.79,248 " fill="none" id="plus-to-end" style="stroke:#181818;stroke-width:1.0;"/><polygon fill="#181818" points="400.79,248,391.79,244,395.79,248,391.79,252,400.79,248" style="stroke:#181818;stroke-width:1.0;"/></g><!--link start to minus--><g id="link_start_minus"><path codeLine="39" d="M172.35,243.81 C194.12,232.88 247.1476,206.2516 270.3976,194.5816 " fill="none" id="start-to-minus" style="stroke:#181818;stroke-width:1.0;"/><polygon fill="#181818" points="275.76,191.89,265.922,192.3524,271.2913,194.133,269.5108,199.5023,275.76,191.89" style="stroke:#181818;stroke-width:1.0;"/></g><!--link minus to end--><g id="link_minus_end"><path codeLine="40" d="M297.03,191.79 C320.19,203.41 373.7484,230.2968 395.4484,241.1968 " fill="none" id="minus-to-end" style="stroke:#181818;stroke-width:1.0;"/><polygon fill="#181818" points="400.81,243.89,394.563,236.2759,396.342,241.6457,390.9721,243.4247,400.81,243.89" style="stroke:#181818;stroke-width:1.0;"/></g><!--link start to end--><g id="link_start_end"><path codeLine="41" d="M172.25,250.88 C193.77,258.39 250,278 250,278 C250,278 323,278 323,278 C323,278 373.565,260.3669 395.085,252.8569 " fill="none" id="start-to-end" style="stroke:#181818;stroke-width:1.0;"/><polygon fill="#181818" points="400.75,250.88,390.9346,250.0688,396.0292,252.5275,393.5705,257.622,400.75,250.88" style="stroke:#181818;stroke-width:1.0;"/></g><!--link start to OptionalSign--><g id="link_start_OptionalSign"><path codeLine="43" d="M58.05,150 C64.37,150 73.875,150 84.6145,150 C89.9843,150 95.6627,150 101.4059,150 C104.2775,150 107.1653,150 110.0389,150 C110.3981,150 110.7571,150 111.1157,150 C111.2951,150 105.4744,150 105.6536,150 " fill="none" id="start-to-OptionalSign" style="stroke:#181818;stroke-width:1.0;"/><polygon fill="#181818" points="111.6536,150,102.6536,146,106.6536,150,102.6536,154,111.6536,150" style="stroke:#181818;stroke-width:1.0;"/></g><!--link OptionalSign to Factor--><g id="link_OptionalSign_Factor"><path codeLine="44" d="M209.7315,122.8971 C212.3648,121.3365 215.0383,119.752 217.7303,118.1564 C223.1145,114.9654 228.5732,111.7302 233.9342,108.5528 C244.6563,102.1981 249.826,99.1342 258.3885,94.0592 " fill="none" id="OptionalSign-to-Factor" style="stroke:#181818;stroke-width:1.0;"/><polygon fill="#181818" points="263.55,91,253.7683,92.1478,259.2487,93.5494,257.8472,99.0298,263.55,91" style="stroke:#181818;stroke-width:1.0;"/></g><!--link Factor to end--><g id="link_Factor_end"><path codeLine="45" d="M323.3,75.64 C350.18,73.87 378.9529,71.9725 394.6629,70.9425 " fill="none" id="Factor-to-end" style="stroke:#181818;stroke-width:1.0;"/><polygon fill="#181818" points="400.65,70.55,391.4076,67.1474,395.6607,70.8771,391.931,75.1302,400.65,70.55" style="stroke:#181818;stroke-width:1.0;"/></g><!--SRC=[tLPDRzGm4BtxLrXx0g5Aj7nMglO4I1mAbOe49wHqTxfhaRKZssrtGVtln7RiU6o7pQeI3UJaUJF-c3TlOjTmhQaMLBBLMjCbax3GJ72oPakW2oONDRWnR1gzenlGQx5KCLHfBTdLZGP5r0_6cqfM6rep3dhN06r4lJC68OHN6r1DjG0wExjeOIusyncj5EqC-elGzdlob2fTIUqDu4ixNDILKktK3qmg_GLaDpcOAEXSI32WSa71Z8DcpsVM-HEaiBZTbXuTpNl832pYJz77u8s3PNruls25bUu9XxkcMW6f_nh_CVr378ujGRNGGdPpxTYwunq-DoQDghvaA-u2OwJR9zihsIykrZDNhAQ-KPdloFasZBVEuErBXIOP0vKKnxf5F6wjFqHxz3uHHvoiTQ7ihNnwtjnmCk8OwfrnuiWALIpI23NjRMKoKEHGu3B5k3TBXU-B7gsGDt6kX7lpbtlSniwu75crhQlE5b5_8Uv0NhIp_7-wCt6G50t8Zrp32hgT4HG7drUxA_Xcbd2r32P1rPmNLa282Oacs_e4Sw10BhMj7UDCWZMT5Wp9p1EY7b3ExBxRM-O7C7ZuVJe5teUO6Cdwz-xNPwOTrYFflooiO4UEyNqjCLrMzsG_yjLnQPpgAzFhao_Y52rNT97iKTA77GzCFyP7EkI1SkoABzhi4zVP9y7V6_RUiHNJtJs6iTAh9Lwf7LiicUNT62wyJCeiZEEnvO8SoaPu_yKfOooROk4JBKvTT319YPpUwtq1GG-mP2yC9qGbhPEhmWOKn59klR8eyH8npLDfr_rg7TcmDZWg9ZbG8AHGSX9AFLJcWH8_Dglxy_qNMPtUPPFIC_Bg7dWRfNzr3vyuMD_Xw1STl9Q0urywnxMuGG-3sQiEPxSu_hN35SClk3ST3BV0aUEjSu2X6ZbEdODRdWOUPVcLqoC-mmW9oVLOo2k2V4ezvBE9a9189AAGGu_PunVVZ_vYz7PxNcoRqoB4d1K3xKcneDaMs-QK2B5dH8WvuRHwe72JZko5_q7S_l2f7aewpZLIK7OccuBKSoNbsa-rLUg5J6-bxiWrMEWNBClV]--></g></svg>