<?xml version="1.0" encoding="us-ascii" standalone="no"?><svg xmlns="http://www.w3.org/2000/svg" xmlns:xlink="http://www.w3.org/1999/xlink" contentStyleType="text/css" height="490px" preserveAspectRatio="none" style="width:720px;height:490px;background:#FFFFFF;" version="1.1" viewBox="0 0 720 490" width="720px" zoomAndPan="magnify"><defs/><g><!--cluster ProperInteger--><g id="cluster_ProperInteger"><path d="M8.5,6 L144.5,6 A3.75,3.75 0 0 1 147,8.5 L154,28.2969 L710.5,28.2969 A2.5,2.5 0 0 1 713,30.7969 L713,480.5 A2.5,2.5 0 0 1 710.5,483 L8.5,483 A2.5,2.5 0 0 1 6,480.5 L6,8.5 A2.5,2.5 0 0 1 8.5,6 " fill="none" style="stroke:#000000;stroke-width:1.5;"/><line style="stroke:#000000;stroke-width:1.5;" x1="6" x2="154" y1="28.2969" y2="28.2969"/><text fill="#000000" font-family="sans-serif" font-size="14" font-weight="bold" lengthAdjust="spacing" textLength="135" x="10" y="20.9951">&lt;ProperInteger&gt;</text></g><!--cluster StartsWith2To9Integer--><g id="cluster_StartsWith2To9Integer"><path d="M114.5,307 L318.5,307 A3.75,3.75 0 0 1 321,309.5 L328,329.2969 L678.5,329.2969 A2.5,2.5 0 0 1 681,331.7969 L681,448.5 A2.5,2.5 0 0 1 678.5,451 L114.5,451 A2.5,2.5 0 0 1 112,448.5 L112,309.5 A2.5,2.5 0 0 1 114.5,307 " fill="none" style="stroke:#000000;stroke-width:1.5;"/><line style="stroke:#000000;stroke-width:1.5;" x1="112" x2="328" y1="329.2969" y2="329.2969"/><text fill="#000000" font-family="sans-serif" font-size="14" font-weight="bold" lengthAdjust="spacing" textLength="203" x="116" y="321.9951">&lt;StartsWith2To9Integer&gt;</text></g><!--cluster StartsWith1Integer--><g id="cluster_StartsWith1Integer"><path d="M114.5,57 L288.5,57 A3.75,3.75 0 0 1 291,59.5 L298,79.2969 L678.5,79.2969 A2.5,2.5 0 0 1 681,81.7969 L681,198.5 A2.5,2.5 0 0 1 678.5,201 L114.5,201 A2.5,2.5 0 0 1 112,198.5 L112,59.5 A2.5,2.5 0 0 1 114.5,57 " fill="none" style="stroke:#000000;stroke-width:1.5;"/><line style="stroke:#000000;stroke-width:1.5;" x1="112" x2="298" y1="79.2969" y2="79.2969"/><text fill="#000000" font-family="sans-serif" font-size="14" font-weight="bold" lengthAdjust="spacing" textLength="173" x="116" y="71.9951">&lt;StartsWith1Integer&gt;</text></g><!--entity start--><g id="elem_start"><ellipse cx="49" cy="264" fill="#F1F1F1" rx="8" ry="8" style="stroke:#181818;stroke-width:0.5;"/><text fill="#000000" font-family="sans-serif" font-size="14" lengthAdjust="spacing" textLength="31" x="33.5" y="293.9951">start</text></g><!--entity end--><g id="elem_end"><ellipse cx="296.5" cy="254" fill="#F1F1F1" rx="8" ry="8" style="stroke:#181818;stroke-width:0.5;"/><text fill="#000000" font-family="sans-serif" font-size="14" lengthAdjust="spacing" textLength="27" x="283" y="283.9951">end</text></g><!--entity start--><g id="elem_start"><ellipse cx="163" cy="398" fill="#F1F1F1" rx="8" ry="8" style="stroke:#181818;stroke-width:0.5;"/><text fill="#000000" font-family="sans-serif" font-size="14" lengthAdjust="spacing" textLength="31" x="147.5" y="427.9951">start</text></g><!--entity end--><g id="elem_end"><ellipse cx="630" cy="398" fill="#F1F1F1" rx="8" ry="8" style="stroke:#181818;stroke-width:0.5;"/><text fill="#000000" font-family="sans-serif" font-size="14" lengthAdjust="spacing" textLength="27" x="616.5" y="427.9951">end</text></g><!--class OptionalDigits--><g id="elem_OptionalDigits"><rect codeLine="161" fill="#F1F1F1" height="26.2969" id="OptionalDigits" rx="2.5" ry="2.5" style="stroke:#181818;stroke-width:0.5;" width="126" x="410" y="385"/><text fill="#000000" font-family="sans-serif" font-size="14" lengthAdjust="spacing" textLength="120" x="413" y="402.9951">&lt;OptionalDigits&gt;</text></g><!--class Digit2to9--><g id="elem_Digit2to9"><rect codeLine="162" fill="#F1F1F1" height="26.2969" id="Digit2to9" rx="2.5" ry="2.5" style="stroke:#181818;stroke-width:0.5;" width="93" x="250" y="385"/><text fill="#000000" font-family="sans-serif" font-size="14" lengthAdjust="spacing" textLength="87" x="253" y="402.9951">&lt;Digit2to9&gt;</text></g><!--entity start--><g id="elem_start"><ellipse cx="163" cy="129" fill="#F1F1F1" rx="8" ry="8" style="stroke:#181818;stroke-width:0.5;"/><text fill="#000000" font-family="sans-serif" font-size="14" lengthAdjust="spacing" textLength="31" x="147.5" y="158.9951">start</text></g><!--entity end--><g id="elem_end"><ellipse cx="630" cy="129" fill="#F1F1F1" rx="8" ry="8" style="stroke:#181818;stroke-width:0.5;"/><text fill="#000000" font-family="sans-serif" font-size="14" lengthAdjust="spacing" textLength="27" x="616.5" y="158.9951">end</text></g><!--class one--><g id="elem_one"><rect codeLine="149" fill="#F1F1F1" height="26.2969" id="one" rx="2.5" ry="2.5" style="stroke:#181818;stroke-width:0.5;" width="25" x="284" y="116"/><text fill="#000000" font-family="sans-serif" font-size="14" lengthAdjust="spacing" textLength="19" x="287" y="133.9951">"1"</text></g><!--class NonEmptyDigits--><g id="elem_NonEmptyDigits"><rect codeLine="150" fill="#F1F1F1" height="26.2969" id="NonEmptyDigits" rx="2.5" ry="2.5" style="stroke:#181818;stroke-width:0.5;" width="140" x="403" y="116"/><text fill="#000000" font-family="sans-serif" font-size="14" lengthAdjust="spacing" textLength="134" x="406" y="133.9951">&lt;NonEmptyDigits&gt;</text></g><!--link start to one--><g id="link_start_one"><path codeLine="152" d="M172.23,129 C194.72,129 251.31,129 277.61,129 " fill="none" id="start-to-one" style="stroke:#181818;stroke-width:1.0;"/><polygon fill="#181818" points="283.61,129,274.61,125,278.61,129,274.61,133,283.61,129" style="stroke:#181818;stroke-width:1.0;"/></g><!--link one to NonEmptyDigits--><g id="link_one_NonEmptyDigits"><path codeLine="153" d="M309.22,129 C328.32,129 361.58,129 396.76,129 " fill="none" id="one-to-NonEmptyDigits" style="stroke:#181818;stroke-width:1.0;"/><polygon fill="#181818" points="402.76,129,393.76,125,397.76,129,393.76,133,402.76,129" style="stroke:#181818;stroke-width:1.0;"/></g><!--link NonEmptyDigits to end--><g id="link_NonEmptyDigits_end"><path codeLine="154" d="M543.34,129 C573.97,129 600.32,129 614.96,129 " fill="none" id="NonEmptyDigits-to-end" style="stroke:#181818;stroke-width:1.0;"/><polygon fill="#181818" points="620.96,129,611.96,125,615.96,129,611.96,133,620.96,129" style="stroke:#181818;stroke-width:1.0;"/></g><!--link start to Digit2to9--><g id="link_start_Digit2to9"><path codeLine="165" d="M172.23,398 C187.52,398 215.36,398 243.72,398 " fill="none" id="start-to-Digit2to9" style="stroke:#181818;stroke-width:1.0;"/><polygon fill="#181818" points="249.72,398,240.72,394,244.72,398,240.72,402,249.72,398" style="stroke:#181818;stroke-width:1.0;"/></g><!--link Digit2to9 to OptionalDigits--><g id="link_Digit2to9_OptionalDigits"><path codeLine="166" d="M343.35,398 C363.64,398 381.83,398 403.73,398 " fill="none" id="Digit2to9-to-OptionalDigits" style="stroke:#181818;stroke-width:1.0;"/><polygon fill="#181818" points="409.73,398,400.73,394,404.73,398,400.73,402,409.73,398" style="stroke:#181818;stroke-width:1.0;"/></g><!--link OptionalDigits to end--><g id="link_OptionalDigits_end"><path codeLine="167" d="M536.15,398 C568.49,398 598.55,398 614.56,398 " fill="none" id="OptionalDigits-to-end" style="stroke:#181818;stroke-width:1.0;"/><polygon fill="#181818" points="620.56,398,611.56,394,615.56,398,611.56,402,620.56,398" style="stroke:#181818;stroke-width:1.0;"/></g><!--link start to StartsWith1Integer--><g id="link_start_StartsWith1Integer"><path codeLine="170" d="M58.05,258.89 C70.69,250.88 96.07,234.7925 118.5863,220.52 C129.8444,213.3838 140.3866,206.7013 148.2623,201.7091 C148.5085,201.5531 148.752,201.3987 148.9928,201.246 C149.1133,201.1697 144.1653,204.306 144.2844,204.2305 " fill="none" id="start-to-StartsWith1Integer" style="stroke:#181818;stroke-width:1.0;"/><polygon fill="#181818" points="149.3521,201.0183,139.6091,202.4582,145.129,203.6952,143.892,209.2151,149.3521,201.0183" style="stroke:#181818;stroke-width:1.0;"/></g><!--link StartsWith1Integer to end--><g id="link_StartsWith1Integer_end"><path codeLine="171" d="M181.6383,201.178 C181.9403,201.3181 182.2452,201.4596 182.5531,201.6025 C183.1689,201.8882 183.7964,202.1793 184.435,202.4756 C185.7121,203.0682 187.0337,203.6814 188.3951,204.313 C191.1179,205.5764 194,206.9136 197.0047,208.3077 C203.014,211.0958 209.5134,214.1112 216.2088,217.2175 C242.99,229.6425 267.4615,240.9964 281.6765,247.5864 " fill="none" id="StartsWith1Integer-to-end" style="stroke:#181818;stroke-width:1.0;"/><polygon fill="#181818" points="287.12,250.11,280.6371,242.6956,282.5838,248.007,277.2724,249.9536,287.12,250.11" style="stroke:#181818;stroke-width:1.0;"/></g><!--link start to StartsWith2To9Integer--><g id="link_start_StartsWith2To9Integer"><path codeLine="172" d="M58.05,269.03 C70.69,276.93 90.982,289.6125 113.4982,303.685 " fill="none" id="start-to-StartsWith2To9Integer" style="stroke:#181818;stroke-width:1.0;"/><polygon fill="#181818" points="118.5863,306.865,113.0742,298.703,114.3462,304.215,108.8343,305.4871,118.5863,306.865" style="stroke:#181818;stroke-width:1.0;"/></g><!--link StartsWith2To9Integer to end--><g id="link_StartsWith2To9Integer_end"><path codeLine="173" d="M208.7747,306.7617 C209.588,306.2668 210.4062,305.769 211.2286,305.2687 C212.8733,304.268 214.5349,303.2571 216.2088,302.2388 C242.99,285.945 267.7786,270.8627 281.9936,262.2177 " fill="none" id="StartsWith2To9Integer-to-end" style="stroke:#181818;stroke-width:1.0;"/><polygon fill="#181818" points="287.12,259.1,277.3519,260.3589,282.848,261.6981,281.5088,267.1941,287.12,259.1" style="stroke:#181818;stroke-width:1.0;"/></g><!--SRC=[tLPDRzGm4BtxLrXx0g5Aj7nMglO4I1mAbOe49wHqTxfhaRKZssrtGVtln7RiU6o7pQeI3UJaUJF-c3TlOjTmhQaMLBBLMjCbax3GJ72oPakW2oONDRWnR1gzenlGQx5KCLHfBTdLZGP5r0_6cqfM6rep3dhN06r4lJC68OHN6r1DjG0wExjeOIusyncj5EqC-elGzdlob2fTIUqDu4ixNDILKktK3qmg_GLaDpcOAEXSI32WSa71Z8DcpsVM-HEaiBZTbXuTpNl832pYJz77u8s3PNruls25bUu9XxkcMW6f_nh_CVr378ujGRNGGdPpxTYwunq-DoQDghvaA-u2OwJR9zihsIykrZDNhAQ-KPdloFasZBVEuErBXIOP0vKKnxf5F6wjFqHxz3uHHvoiTQ7ihNnwtjnmCk8OwfrnuiWALIpI23NjRMKoKEHGu3B5k3TBXU-B7gsGDt6kX7lpbtlSniwu75crhQlE5b5_8Uv0NhIp_7-wCt6G50t8Zrp32hgT4HG7drUxA_Xcbd2r32P1rPmNLa282Oacs_e4Sw10BhMj7UDCWZMT5Wp9p1EY7b3ExBxRM-O7C7ZuVJe5teUO6Cdwz-xNPwOTrYFflooiO4UEyNqjCLrMzsG_yjLnQPpgAzFhao_Y52rNT97iKTA77GzCFyP7EkI1SkoABzhi4zVP9y7V6_RUiHNJtJs6iTAh9Lwf7LiicUNT62wyJCeiZEEnvO8SoaPu_yKfOooROk4JBKvTT319YPpUwtq1GG-mP2yC9qGbhPEhmWOKn59klR8eyH8npLDfr_rg7TcmDZWg9ZbG8AHGSX9AFLJcWH8_Dglxy_qNMPtUPPFIC_Bg7dWRfNzr3vyuMD_Xw1STl9Q0urywnxMuGG-3sQiEPxSu_hN35SClk3ST3BV0aUEjSu2X6ZbEdODRdWOUPVcLqoC-mmW9oVLOo2k2V4ezvBE9a9189AAGGu_PunVVZ_vYz7PxNcoRqoB4d1K3xKcneDaMs-QK2B5dH8WvuRHwe72JZko5_q7S_l2f7aewpZLIK7OccuBKSoNbsa-rLUg5J6-bxiWrMEWNBClV]--></g></svg>