<?xml version="1.0" encoding="us-ascii" standalone="no"?><svg xmlns="http://www.w3.org/2000/svg" xmlns:xlink="http://www.w3.org/1999/xlink" contentStyleType="text/css" height="639px" preserveAspectRatio="none" style="width:298px;height:639px;background:#FFFFFF;" version="1.1" viewBox="0 0 298 639" width="298px" zoomAndPan="magnify"><defs/><g><!--cluster Digit--><g id="cluster_Digit"><path d="M8.5,6 L68.5,6 A3.75,3.75 0 0 1 71,8.5 L78,28.2969 L288.5,28.2969 A2.5,2.5 0 0 1 291,30.7969 L291,629.5 A2.5,2.5 0 0 1 288.5,632 L8.5,632 A2.5,2.5 0 0 1 6,629.5 L6,8.5 A2.5,2.5 0 0 1 8.5,6 " fill="none" style="stroke:#000000;stroke-width:1.5;"/><line style="stroke:#000000;stroke-width:1.5;" x1="6" x2="78" y1="28.2969" y2="28.2969"/><text fill="#000000" font-family="sans-serif" font-size="14" font-weight="bold" lengthAdjust="spacing" textLength="59" x="10" y="20.9951">&lt;Digit&gt;</text></g><!--entity start--><g id="elem_start"><ellipse cx="49" cy="329" fill="#F1F1F1" rx="8" ry="8" style="stroke:#181818;stroke-width:0.5;"/><text fill="#000000" font-family="sans-serif" font-size="14" lengthAdjust="spacing" textLength="31" x="33.5" y="358.9951">start</text></g><!--entity end--><g id="elem_end"><ellipse cx="248" cy="329" fill="#F1F1F1" rx="8" ry="8" style="stroke:#181818;stroke-width:0.5;"/><text fill="#000000" font-family="sans-serif" font-size="14" lengthAdjust="spacing" textLength="27" x="234.5" y="358.9951">end</text></g><!--class zero--><g id="elem_zero"><rect codeLine="220" fill="#F1F1F1" height="26.2969" id="zero" rx="2.5" ry="2.5" style="stroke:#181818;stroke-width:0.5;" width="25" x="136" y="590"/><text fill="#000000" font-family="sans-serif" font-size="14" lengthAdjust="spacing" textLength="19" x="139" y="607.9951">"0"</text></g><!--class one--><g id="elem_one"><rect codeLine="221" fill="#F1F1F1" height="26.2969" id="one" rx="2.5" ry="2.5" style="stroke:#181818;stroke-width:0.5;" width="25" x="136" y="529"/><text fill="#000000" font-family="sans-serif" font-size="14" lengthAdjust="spacing" textLength="19" x="139" y="546.9951">"1"</text></g><!--class two--><g id="elem_two"><rect codeLine="222" fill="#F1F1F1" height="26.2969" id="two" rx="2.5" ry="2.5" style="stroke:#181818;stroke-width:0.5;" width="25" x="136" y="468"/><text fill="#000000" font-family="sans-serif" font-size="14" lengthAdjust="spacing" textLength="19" x="139" y="485.9951">"2"</text></g><!--class three--><g id="elem_three"><rect codeLine="223" fill="#F1F1F1" height="26.2969" id="three" rx="2.5" ry="2.5" style="stroke:#181818;stroke-width:0.5;" width="25" x="136" y="407"/><text fill="#000000" font-family="sans-serif" font-size="14" lengthAdjust="spacing" textLength="19" x="139" y="424.9951">"3"</text></g><!--class four--><g id="elem_four"><rect codeLine="224" fill="#F1F1F1" height="26.2969" id="four" rx="2.5" ry="2.5" style="stroke:#181818;stroke-width:0.5;" width="25" x="136" y="346"/><text fill="#000000" font-family="sans-serif" font-size="14" lengthAdjust="spacing" textLength="19" x="139" y="363.9951">"4"</text></g><!--class five--><g id="elem_five"><rect codeLine="225" fill="#F1F1F1" height="26.2969" id="five" rx="2.5" ry="2.5" style="stroke:#181818;stroke-width:0.5;" width="25" x="136" y="285"/><text fill="#000000" font-family="sans-serif" font-size="14" lengthAdjust="spacing" textLength="19" x="139" y="302.9951">"5"</text></g><!--class six--><g id="elem_six"><rect codeLine="226" fill="#F1F1F1" height="26.2969" id="six" rx="2.5" ry="2.5" style="stroke:#181818;stroke-width:0.5;" width="25" x="136" y="224"/><text fill="#000000" font-family="sans-serif" font-size="14" lengthAdjust="spacing" textLength="19" x="139" y="241.9951">"6"</text></g><!--class seven--><g id="elem_seven"><rect codeLine="227" fill="#F1F1F1" height="26.2969" id="seven" rx="2.5" ry="2.5" style="stroke:#181818;stroke-width:0.5;" width="25" x="136" y="163"/><text fill="#000000" font-family="sans-serif" font-size="14" lengthAdjust="spacing" textLength="19" x="139" y="180.9951">"7"</text></g><!--class eight--><g id="elem_eight"><rect codeLine="228" fill="#F1F1F1" height="26.2969" id="eight" rx="2.5" ry="2.5" style="stroke:#181818;stroke-width:0.5;" width="25" x="136" y="102"/><text fill="#000000" font-family="sans-serif" font-size="14" lengthAdjust="spacing" textLength="19" x="139" y="119.9951">"8"</text></g><!--class nine--><g id="elem_nine"><rect codeLine="229" fill="#F1F1F1" height="26.2969" id="nine" rx="2.5" ry="2.5" style="stroke:#181818;stroke-width:0.5;" width="25" x="136" y="41"/><text fill="#000000" font-family="sans-serif" font-size="14" lengthAdjust="spacing" textLength="19" x="139" y="58.9951">"9"</text></g><!--link start to zero--><g id="link_start_zero"><path codeLine="231" d="M53.27,338.23 C68.98,382.62 136,572 136,572 C136,572 137.3509,575.6454 140.4709,584.0454 " fill="none" id="start-to-zero" style="stroke:#181818;stroke-width:1.0;"/><polygon fill="#181818" points="142.56,589.67,143.176,579.8404,140.8191,584.9829,135.6766,582.6259,142.56,589.67" style="stroke:#181818;stroke-width:1.0;"/></g><!--link start to one--><g id="link_start_one"><path codeLine="232" d="M54.19,338.15 C69.64,371.91 120.992,484.1047 139.052,523.5447 " fill="none" id="start-to-one" style="stroke:#181818;stroke-width:1.0;"/><polygon fill="#181818" points="141.55,529,141.4398,519.1518,139.4683,524.4539,134.1661,522.4825,141.55,529" style="stroke:#181818;stroke-width:1.0;"/></g><!--link start to two--><g id="link_start_two"><path codeLine="233" d="M55.81,338.05 C72.29,363.75 116.1702,432.1699 135.6602,462.5499 " fill="none" id="start-to-two" style="stroke:#181818;stroke-width:1.0;"/><polygon fill="#181818" points="138.9,467.6,137.407,457.865,136.2001,463.3916,130.6735,462.1848,138.9,467.6" style="stroke:#181818;stroke-width:1.0;"/></g><!--link start to three--><g id="link_start_three"><path codeLine="234" d="M58.31,336.76 C75.72,353.01 111.6545,386.5352 131.5645,405.1252 " fill="none" id="start-to-three" style="stroke:#181818;stroke-width:1.0;"/><polygon fill="#181818" points="135.95,409.22,132.1016,400.1542,132.2954,405.8077,126.6419,406.0015,135.95,409.22" style="stroke:#181818;stroke-width:1.0;"/></g><!--link start to four--><g id="link_start_four"><path codeLine="235" d="M58.31,331.56 C75.72,336.91 110.3056,347.5545 130.2156,353.6845 " fill="none" id="start-to-four" style="stroke:#181818;stroke-width:1.0;"/><polygon fill="#181818" points="135.95,355.45,128.5255,348.9788,131.1714,353.9787,126.1714,356.6246,135.95,355.45" style="stroke:#181818;stroke-width:1.0;"/></g><!--link start to five--><g id="link_start_five"><path codeLine="236" d="M58.31,326.36 C75.72,320.82 110.322,309.8179 130.232,303.4879 " fill="none" id="start-to-five" style="stroke:#181818;stroke-width:1.0;"/><polygon fill="#181818" points="135.95,301.67,126.1611,300.5849,131.185,303.1849,128.585,308.2089,135.95,301.67" style="stroke:#181818;stroke-width:1.0;"/></g><!--link start to six--><g id="link_start_six"><path codeLine="237" d="M58.31,321.16 C75.72,304.73 111.6764,270.8081 131.5864,252.0181 " fill="none" id="start-to-six" style="stroke:#181818;stroke-width:1.0;"/><polygon fill="#181818" points="135.95,247.9,126.6592,251.1681,132.3137,251.3318,132.15,256.9863,135.95,247.9" style="stroke:#181818;stroke-width:1.0;"/></g><!--link start to seven--><g id="link_start_seven"><path codeLine="238" d="M55.81,319.89 C72.37,293.9 116.6554,224.3998 135.9654,194.0998 " fill="none" id="start-to-seven" style="stroke:#181818;stroke-width:1.0;"/><polygon fill="#181818" points="139.19,189.04,130.9799,194.48,136.5028,193.2565,137.7263,198.7795,139.19,189.04" style="stroke:#181818;stroke-width:1.0;"/></g><!--link start to eight--><g id="link_start_eight"><path codeLine="239" d="M54.19,319.8 C69.64,285.88 121.0019,173.1498 139.0619,133.5198 " fill="none" id="start-to-eight" style="stroke:#181818;stroke-width:1.0;"/><polygon fill="#181818" points="141.55,128.06,134.178,134.5909,139.4766,132.6098,141.4577,137.9084,141.55,128.06" style="stroke:#181818;stroke-width:1.0;"/></g><!--link start to nine--><g id="link_start_nine"><path codeLine="240" d="M53.16,319.99 C68.68,275.79 136,84 136,84 C136,84 137.1913,80.882 140.2713,72.852 " fill="none" id="start-to-nine" style="stroke:#181818;stroke-width:1.0;"/><polygon fill="#181818" points="142.42,67.25,135.4622,74.2206,140.6294,71.9184,142.9316,77.0856,142.42,67.25" style="stroke:#181818;stroke-width:1.0;"/></g><!--link zero to end--><g id="link_zero_end"><path codeLine="241" d="M154.44,589.67 C157.56,581.27 161,572 161,572 C161,572 226.0182,388.2762 241.7282,343.8862 " fill="none" id="zero-to-end" style="stroke:#181818;stroke-width:1.0;"/><polygon fill="#181818" points="243.73,338.23,236.9565,345.3798,242.0618,342.9435,244.4981,348.0489,243.73,338.23" style="stroke:#181818;stroke-width:1.0;"/></g><!--link one to end--><g id="link_one_end"><path codeLine="242" d="M155.45,529 C173.48,489.62 224.6927,377.7356 240.2427,343.7656 " fill="none" id="one-to-end" style="stroke:#181818;stroke-width:1.0;"/><polygon fill="#181818" points="242.74,338.31,235.357,344.8285,240.6589,342.8563,242.6311,348.1583,242.74,338.31" style="stroke:#181818;stroke-width:1.0;"/></g><!--link two to end--><g id="link_two_end"><path codeLine="243" d="M157.98,467.78 C177.35,437.59 221.1909,369.2405 237.8209,343.3105 " fill="none" id="two-to-end" style="stroke:#181818;stroke-width:1.0;"/><polygon fill="#181818" points="241.06,338.26,232.8343,343.6764,238.3607,342.4688,239.5683,347.9952,241.06,338.26" style="stroke:#181818;stroke-width:1.0;"/></g><!--link three to end--><g id="link_three_end"><path codeLine="244" d="M161.07,409.2 C181.04,390.56 217.1343,356.8745 234.4543,340.7045 " fill="none" id="three-to-end" style="stroke:#181818;stroke-width:1.0;"/><polygon fill="#181818" points="238.84,336.61,229.5317,339.828,235.1852,340.0221,234.9911,345.6756,238.84,336.61" style="stroke:#181818;stroke-width:1.0;"/></g><!--link four to end--><g id="link_four_end"><path codeLine="245" d="M161.07,355.44 C181.04,349.29 215.7854,338.6047 233.1054,333.2747 " fill="none" id="four-to-end" style="stroke:#181818;stroke-width:1.0;"/><polygon fill="#181818" points="238.84,331.51,229.0616,330.3341,234.0612,332.9806,231.4146,337.9802,238.84,331.51" style="stroke:#181818;stroke-width:1.0;"/></g><!--link five to end--><g id="link_five_end"><path codeLine="246" d="M161.07,301.68 C181.04,308.03 215.8024,319.0811 233.1224,324.5911 " fill="none" id="five-to-end" style="stroke:#181818;stroke-width:1.0;"/><polygon fill="#181818" points="238.84,326.41,231.4762,319.8698,234.0753,324.8942,229.0509,327.4933,238.84,326.41" style="stroke:#181818;stroke-width:1.0;"/></g><!--link six to end--><g id="link_six_end"><path codeLine="247" d="M161.07,247.91 C181.04,266.76 217.1557,300.8426 234.4757,317.1826 " fill="none" id="six-to-end" style="stroke:#181818;stroke-width:1.0;"/><polygon fill="#181818" points="238.84,321.3,235.0384,312.2144,235.2031,317.8689,229.5486,318.0335,238.84,321.3" style="stroke:#181818;stroke-width:1.0;"/></g><!--link seven to end--><g id="link_seven_end"><path codeLine="248" d="M157.81,189.04 C177.06,219.25 221.1059,288.3599 237.8059,314.5699 " fill="none" id="seven-to-end" style="stroke:#181818;stroke-width:1.0;"/><polygon fill="#181818" points="241.03,319.63,239.5672,309.8904,238.3432,315.4132,232.8204,314.1892,241.03,319.63" style="stroke:#181818;stroke-width:1.0;"/></g><!--link eight to end--><g id="link_eight_end"><path codeLine="249" d="M155.45,128.06 C173.48,167.63 224.7024,280.06 240.2524,314.19 " fill="none" id="eight-to-end" style="stroke:#181818;stroke-width:1.0;"/><polygon fill="#181818" points="242.74,319.65,242.6485,309.8016,240.667,315.1,235.3685,313.1184,242.74,319.65" style="stroke:#181818;stroke-width:1.0;"/></g><!--link nine to end--><g id="link_nine_end"><path codeLine="250" d="M154.58,67.25 C157.66,75.28 161,84 161,84 C161,84 226.3322,270.1288 241.8522,314.3288 " fill="none" id="nine-to-end" style="stroke:#181818;stroke-width:1.0;"/><polygon fill="#181818" points="243.84,319.99,244.6324,310.1731,242.1835,315.2724,237.0842,312.8235,243.84,319.99" style="stroke:#181818;stroke-width:1.0;"/></g><!--SRC=[tLPDRzGm4BtxLrXx0g5Aj7nMglO4I1mAbOe49wHqTxfhaRKZssrtGVtln7RiU6o7pQeI3UJaUJF-c3TlOjTmhQaMLBBLMjCbax3GJ72oPakW2oONDRWnR1gzenlGQx5KCLHfBTdLZGP5r0_6cqfM6rep3dhN06r4lJC68OHN6r1DjG0wExjeOIusyncj5EqC-elGzdlob2fTIUqDu4ixNDILKktK3qmg_GLaDpcOAEXSI32WSa71Z8DcpsVM-HEaiBZTbXuTpNl832pYJz77u8s3PNruls25bUu9XxkcMW6f_nh_CVr378ujGRNGGdPpxTYwunq-DoQDghvaA-u2OwJR9zihsIykrZDNhAQ-KPdloFasZBVEuErBXIOP0vKKnxf5F6wjFqHxz3uHHvoiTQ7ihNnwtjnmCk8OwfrnuiWALIpI23NjRMKoKEHGu3B5k3TBXU-B7gsGDt6kX7lpbtlSniwu75crhQlE5b5_8Uv0NhIp_7-wCt6G50t8Zrp32hgT4HG7drUxA_Xcbd2r32P1rPmNLa282Oacs_e4Sw10BhMj7UDCWZMT5Wp9p1EY7b3ExBxRM-O7C7ZuVJe5teUO6Cdwz-xNPwOTrYFflooiO4UEyNqjCLrMzsG_yjLnQPpgAzFhao_Y52rNT97iKTA77GzCFyP7EkI1SkoABzhi4zVP9y7V6_RUiHNJtJs6iTAh9Lwf7LiicUNT62wyJCeiZEEnvO8SoaPu_yKfOooROk4JBKvTT319YPpUwtq1GG-mP2yC9qGbhPEhmWOKn59klR8eyH8npLDfr_rg7TcmDZWg9ZbG8AHGSX9AFLJcWH8_Dglxy_qNMPtUPPFIC_Bg7dWRfNzr3vyuMD_Xw1STl9Q0urywnxMuGG-3sQiEPxSu_hN35SClk3ST3BV0aUEjSu2X6ZbEdODRdWOUPVcLqoC-mmW9oVLOo2k2V4ezvBE9a9189AAGGu_PunVVZ_vYz7PxNcoRqoB4d1K3xKcneDaMs-QK2B5dH8WvuRHwe72JZko5_q7S_l2f7aewpZLIK7OccuBKSoNbsa-rLUg5J6-bxiWrMEWNBClV]--></g></svg>