<?xml version="1.0" encoding="us-ascii" standalone="no"?><svg xmlns="http://www.w3.org/2000/svg" xmlns:xlink="http://www.w3.org/1999/xlink" contentStyleType="text/css" height="517px" preserveAspectRatio="none" style="width:298px;height:517px;background:#FFFFFF;" version="1.1" viewBox="0 0 298 517" width="298px" zoomAndPan="magnify"><defs/><g><!--cluster Digit2to9--><g id="cluster_Digit2to9"><path d="M8.5,6 L104.5,6 A3.75,3.75 0 0 1 107,8.5 L114,28.2969 L288.5,28.2969 A2.5,2.5 0 0 1 291,30.7969 L291,507.5 A2.5,2.5 0 0 1 288.5,510 L8.5,510 A2.5,2.5 0 0 1 6,507.5 L6,8.5 A2.5,2.5 0 0 1 8.5,6 " fill="none" style="stroke:#000000;stroke-width:1.5;"/><line style="stroke:#000000;stroke-width:1.5;" x1="6" x2="114" y1="28.2969" y2="28.2969"/><text fill="#000000" font-family="sans-serif" font-size="14" font-weight="bold" lengthAdjust="spacing" textLength="95" x="10" y="20.9951">&lt;Digit2to9&gt;</text></g><!--entity start--><g id="elem_start"><ellipse cx="49" cy="268" fill="#F1F1F1" rx="8" ry="8" style="stroke:#181818;stroke-width:0.5;"/><text fill="#000000" font-family="sans-serif" font-size="14" lengthAdjust="spacing" textLength="31" x="33.5" y="297.9951">start</text></g><!--entity end--><g id="elem_end"><ellipse cx="248" cy="268" fill="#F1F1F1" rx="8" ry="8" style="stroke:#181818;stroke-width:0.5;"/><text fill="#000000" font-family="sans-serif" font-size="14" lengthAdjust="spacing" textLength="27" x="234.5" y="297.9951">end</text></g><!--class two--><g id="elem_two"><rect codeLine="262" fill="#F1F1F1" height="26.2969" id="two" rx="2.5" ry="2.5" style="stroke:#181818;stroke-width:0.5;" width="25" x="136" y="468"/><text fill="#000000" font-family="sans-serif" font-size="14" lengthAdjust="spacing" textLength="19" x="139" y="485.9951">"2"</text></g><!--class three--><g id="elem_three"><rect codeLine="263" fill="#F1F1F1" height="26.2969" id="three" rx="2.5" ry="2.5" style="stroke:#181818;stroke-width:0.5;" width="25" x="136" y="407"/><text fill="#000000" font-family="sans-serif" font-size="14" lengthAdjust="spacing" textLength="19" x="139" y="424.9951">"3"</text></g><!--class four--><g id="elem_four"><rect codeLine="264" fill="#F1F1F1" height="26.2969" id="four" rx="2.5" ry="2.5" style="stroke:#181818;stroke-width:0.5;" width="25" x="136" y="346"/><text fill="#000000" font-family="sans-serif" font-size="14" lengthAdjust="spacing" textLength="19" x="139" y="363.9951">"4"</text></g><!--class five--><g id="elem_five"><rect codeLine="265" fill="#F1F1F1" height="26.2969" id="five" rx="2.5" ry="2.5" style="stroke:#181818;stroke-width:0.5;" width="25" x="136" y="285"/><text fill="#000000" font-family="sans-serif" font-size="14" lengthAdjust="spacing" textLength="19" x="139" y="302.9951">"5"</text></g><!--class six--><g id="elem_six"><rect codeLine="266" fill="#F1F1F1" height="26.2969" id="six" rx="2.5" ry="2.5" style="stroke:#181818;stroke-width:0.5;" width="25" x="136" y="224"/><text fill="#000000" font-family="sans-serif" font-size="14" lengthAdjust="spacing" textLength="19" x="139" y="241.9951">"6"</text></g><!--class seven--><g id="elem_seven"><rect codeLine="267" fill="#F1F1F1" height="26.2969" id="seven" rx="2.5" ry="2.5" style="stroke:#181818;stroke-width:0.5;" width="25" x="136" y="163"/><text fill="#000000" font-family="sans-serif" font-size="14" lengthAdjust="spacing" textLength="19" x="139" y="180.9951">"7"</text></g><!--class eight--><g id="elem_eight"><rect codeLine="268" fill="#F1F1F1" height="26.2969" id="eight" rx="2.5" ry="2.5" style="stroke:#181818;stroke-width:0.5;" width="25" x="136" y="102"/><text fill="#000000" font-family="sans-serif" font-size="14" lengthAdjust="spacing" textLength="19" x="139" y="119.9951">"8"</text></g><!--class nine--><g id="elem_nine"><rect codeLine="269" fill="#F1F1F1" height="26.2969" id="nine" rx="2.5" ry="2.5" style="stroke:#181818;stroke-width:0.5;" width="25" x="136" y="41"/><text fill="#000000" font-family="sans-serif" font-size="14" lengthAdjust="spacing" textLength="19" x="139" y="58.9951">"9"</text></g><!--link start to two--><g id="link_start_two"><path codeLine="271" d="M54.19,277.15 C69.64,310.91 120.992,423.1047 139.052,462.5447 " fill="none" id="start-to-two" style="stroke:#181818;stroke-width:1.0;"/><polygon fill="#181818" points="141.55,468,141.4398,458.1518,139.4683,463.4539,134.1661,461.4825,141.55,468" style="stroke:#181818;stroke-width:1.0;"/></g><!--link two to end--><g id="link_two_end"><path codeLine="272" d="M155.45,468 C173.48,428.62 224.6927,316.7356 240.2427,282.7656 " fill="none" id="two-to-end" style="stroke:#181818;stroke-width:1.0;"/><polygon fill="#181818" points="242.74,277.31,235.357,283.8285,240.6589,281.8563,242.6311,287.1583,242.74,277.31" style="stroke:#181818;stroke-width:1.0;"/></g><!--link start to three--><g id="link_start_three"><path codeLine="273" d="M55.81,277.05 C72.29,302.75 116.1702,371.1699 135.6602,401.5499 " fill="none" id="start-to-three" style="stroke:#181818;stroke-width:1.0;"/><polygon fill="#181818" points="138.9,406.6,137.407,396.865,136.2001,402.3916,130.6735,401.1848,138.9,406.6" style="stroke:#181818;stroke-width:1.0;"/></g><!--link three to end--><g id="link_three_end"><path codeLine="274" d="M157.98,406.78 C177.35,376.59 221.1909,308.2405 237.8209,282.3105 " fill="none" id="three-to-end" style="stroke:#181818;stroke-width:1.0;"/><polygon fill="#181818" points="241.06,277.26,232.8343,282.6764,238.3607,281.4688,239.5683,286.9952,241.06,277.26" style="stroke:#181818;stroke-width:1.0;"/></g><!--link start to four--><g id="link_start_four"><path codeLine="275" d="M58.31,275.76 C75.72,292.01 111.6545,325.5352 131.5645,344.1252 " fill="none" id="start-to-four" style="stroke:#181818;stroke-width:1.0;"/><polygon fill="#181818" points="135.95,348.22,132.1016,339.1542,132.2954,344.8077,126.6419,345.0015,135.95,348.22" style="stroke:#181818;stroke-width:1.0;"/></g><!--link four to end--><g id="link_four_end"><path codeLine="276" d="M161.07,348.2 C181.04,329.56 217.1343,295.8745 234.4543,279.7045 " fill="none" id="four-to-end" style="stroke:#181818;stroke-width:1.0;"/><polygon fill="#181818" points="238.84,275.61,229.5317,278.828,235.1852,279.0221,234.9911,284.6756,238.84,275.61" style="stroke:#181818;stroke-width:1.0;"/></g><!--link start to five--><g id="link_start_five"><path codeLine="277" d="M58.31,270.56 C75.72,275.91 110.3056,286.5545 130.2156,292.6845 " fill="none" id="start-to-five" style="stroke:#181818;stroke-width:1.0;"/><polygon fill="#181818" points="135.95,294.45,128.5255,287.9788,131.1714,292.9787,126.1714,295.6246,135.95,294.45" style="stroke:#181818;stroke-width:1.0;"/></g><!--link five to end--><g id="link_five_end"><path codeLine="278" d="M161.07,294.44 C181.04,288.29 215.7854,277.6047 233.1054,272.2747 " fill="none" id="five-to-end" style="stroke:#181818;stroke-width:1.0;"/><polygon fill="#181818" points="238.84,270.51,229.0616,269.3341,234.0612,271.9806,231.4146,276.9802,238.84,270.51" style="stroke:#181818;stroke-width:1.0;"/></g><!--link start to six--><g id="link_start_six"><path codeLine="279" d="M58.31,265.36 C75.72,259.82 110.322,248.8179 130.232,242.4879 " fill="none" id="start-to-six" style="stroke:#181818;stroke-width:1.0;"/><polygon fill="#181818" points="135.95,240.67,126.1611,239.5849,131.185,242.1849,128.585,247.2089,135.95,240.67" style="stroke:#181818;stroke-width:1.0;"/></g><!--link six to end--><g id="link_six_end"><path codeLine="280" d="M161.07,240.68 C181.04,247.03 215.8024,258.0811 233.1224,263.5911 " fill="none" id="six-to-end" style="stroke:#181818;stroke-width:1.0;"/><polygon fill="#181818" points="238.84,265.41,231.4762,258.8698,234.0753,263.8942,229.0509,266.4933,238.84,265.41" style="stroke:#181818;stroke-width:1.0;"/></g><!--link start to seven--><g id="link_start_seven"><path codeLine="281" d="M58.31,260.16 C75.72,243.73 111.6764,209.8081 131.5864,191.0181 " fill="none" id="start-to-seven" style="stroke:#181818;stroke-width:1.0;"/><polygon fill="#181818" points="135.95,186.9,126.6592,190.1681,132.3137,190.3318,132.15,195.9863,135.95,186.9" style="stroke:#181818;stroke-width:1.0;"/></g><!--link seven to end--><g id="link_seven_end"><path codeLine="282" d="M161.07,186.91 C181.04,205.76 217.1557,239.8426 234.4757,256.1826 " fill="none" id="seven-to-end" style="stroke:#181818;stroke-width:1.0;"/><polygon fill="#181818" points="238.84,260.3,235.0384,251.2144,235.2031,256.8689,229.5486,257.0335,238.84,260.3" style="stroke:#181818;stroke-width:1.0;"/></g><!--link start to eight--><g id="link_start_eight"><path codeLine="283" d="M55.81,258.89 C72.37,232.9 116.6554,163.3998 135.9654,133.0998 " fill="none" id="start-to-eight" style="stroke:#181818;stroke-width:1.0;"/><polygon fill="#181818" points="139.19,128.04,130.9799,133.48,136.5028,132.2565,137.7263,137.7795,139.19,128.04" style="stroke:#181818;stroke-width:1.0;"/></g><!--link eight to end--><g id="link_eight_end"><path codeLine="284" d="M157.81,128.04 C177.06,158.25 221.1059,227.3599 237.8059,253.5699 " fill="none" id="eight-to-end" style="stroke:#181818;stroke-width:1.0;"/><polygon fill="#181818" points="241.03,258.63,239.5672,248.8904,238.3432,254.4132,232.8204,253.1892,241.03,258.63" style="stroke:#181818;stroke-width:1.0;"/></g><!--link start to nine--><g id="link_start_nine"><path codeLine="285" d="M54.19,258.8 C69.64,224.88 121.0019,112.1498 139.0619,72.5198 " fill="none" id="start-to-nine" style="stroke:#181818;stroke-width:1.0;"/><polygon fill="#181818" points="141.55,67.06,134.178,73.5909,139.4766,71.6098,141.4577,76.9084,141.55,67.06" style="stroke:#181818;stroke-width:1.0;"/></g><!--link nine to end--><g id="link_nine_end"><path codeLine="286" d="M155.45,67.06 C173.48,106.63 224.7024,219.06 240.2524,253.19 " fill="none" id="nine-to-end" style="stroke:#181818;stroke-width:1.0;"/><polygon fill="#181818" points="242.74,258.65,242.6485,248.8016,240.667,254.1,235.3685,252.1184,242.74,258.65" style="stroke:#181818;stroke-width:1.0;"/></g><!--SRC=[tLPDRzGm4BtxLrXx0g5Aj7nMglO4I1mAbOe49wHqTxfhaRKZssrtGVtln7RiU6o7pQeI3UJaUJF-c3TlOjTmhQaMLBBLMjCbax3GJ72oPakW2oONDRWnR1gzenlGQx5KCLHfBTdLZGP5r0_6cqfM6rep3dhN06r4lJC68OHN6r1DjG0wExjeOIusyncj5EqC-elGzdlob2fTIUqDu4ixNDILKktK3qmg_GLaDpcOAEXSI32WSa71Z8DcpsVM-HEaiBZTbXuTpNl832pYJz77u8s3PNruls25bUu9XxkcMW6f_nh_CVr378ujGRNGGdPpxTYwunq-DoQDghvaA-u2OwJR9zihsIykrZDNhAQ-KPdloFasZBVEuErBXIOP0vKKnxf5F6wjFqHxz3uHHvoiTQ7ihNnwtjnmCk8OwfrnuiWALIpI23NjRMKoKEHGu3B5k3TBXU-B7gsGDt6kX7lpbtlSniwu75crhQlE5b5_8Uv0NhIp_7-wCt6G50t8Zrp32hgT4HG7drUxA_Xcbd2r32P1rPmNLa282Oacs_e4Sw10BhMj7UDCWZMT5Wp9p1EY7b3ExBxRM-O7C7ZuVJe5teUO6Cdwz-xNPwOTrYFflooiO4UEyNqjCLrMzsG_yjLnQPpgAzFhao_Y52rNT97iKTA77GzCFyP7EkI1SkoABzhi4zVP9y7V6_RUiHNJtJs6iTAh9Lwf7LiicUNT62wyJCeiZEEnvO8SoaPu_yKfOooROk4JBKvTT319YPpUwtq1GG-mP2yC9qGbhPEhmWOKn59klR8eyH8npLDfr_rg7TcmDZWg9ZbG8AHGSX9AFLJcWH8_Dglxy_qNMPtUPPFIC_Bg7dWRfNzr3vyuMD_Xw1STl9Q0urywnxMuGG-3sQiEPxSu_hN35SClk3ST3BV0aUEjSu2X6ZbEdODRdWOUPVcLqoC-mmW9oVLOo2k2V4ezvBE9a9189AAGGu_PunVVZ_vYz7PxNcoRqoB4d1K3xKcneDaMs-QK2B5dH8WvuRHwe72JZko5_q7S_l2f7aewpZLIK7OccuBKSoNbsa-rLUg5J6-bxiWrMEWNBClV]--></g></svg>